<svg height="32" viewBox="0 0 24 24" width="32" xmlns="http://www.w3.org/2000/svg"><path d="m21.300781 6c-.157 0-.300781.1257812-.300781.3007812v5.4960938l-1.246094-.726563c-.078-.045999-.165906-.068359-.253906-.068359s-.175906.022359-.253906.068359l-2.994141 1.746094c-.156.09-.251953.256547-.251953.435547v3.496094c0 .18.095953.345547.251953.435547l2.994141 1.746094c.078.045999.165906.068359.253906.068359s.175906-.022359.253906-.068359l2.994141-1.746094c.156-.09.251953-.256547.251953-.435547v-1.748047-1.748047-6.0214842c0-.178-.095047-.3416407-.248047-.4316407l-1.302734-.7578125c-.049-.028-.098438-.0410156-.148438-.0410156zm-9.800781 5.001953c-.08775 0-.175406.02286-.253906.068359l-2.9941409 1.746094c-.156.09-.2519531.256547-.2519531.435547v3.496094c0 .18.0959531.345547.2519531.435547l2.9941409 1.746094c.157.091.350812.091.507812 0l2.994141-1.746094c.156-.09.251953-.256547.251953-.435547v-3.496094c0-.18-.095953-.345547-.251953-.435547l-2.994141-1.746094c-.0785-.0455-.166156-.068359-.253906-.068359zm16 0c-.088 0-.175906.022359-.253906.068359l-2.994141 1.746094c-.156.09-.251953.256547-.251953.435547v3.496094c0 .18.095953.345547.251953.435547l2.904297 1.755859c.156.095.351766.095906.509766.003906l1.427734-.830078c.148-.085.149-.299719 0-.386719l-3.09375-1.822265v-1.794922l1.5-.873047 1.5.873047v1.25c0 .167.140375.192719.234375.136719.378-.222 1.517578-.882813 1.517578-.882813.153-.089.248047-.25364.248047-.43164v-.929688c0-.18-.095953-.345547-.251953-.435547l-2.994141-1.746094c-.079-.045999-.165906-.068359-.253906-.068359zm-24 .001953c-.088 0-.1759063.02236-.2539062.06836l-2.99414068 1.74414c-.15599999.091-.25195312.2575-.25195312.4375v4.462891c0 .218.23582812.353141.42382812.244141l1.32812498-.773438c.153-.09.2480469-.253641.2480469-.431641v-2.642578l1.5-.875 1.5.875v2.642578c0 .178.0950469.341641.2480469.431641l1.328125.773438c.188.11.4238281-.026141.4238281-.244141v-4.462891c0-.18-.0959531-.3465-.2519531-.4375l-2.9941407-1.74414c-.0779999-.046-.1659062-.06836-.2539062-.06836zm16 2.232422 1.5.875v.888672.888672l-1.5.875-1.5-.875v-1.777344zm8 .767578-.857422.5v.998047l.857422.498047.857422-.498047v-.998047zm-12.09375 3.994141c-.102875 0-.206875.025172-.296875.076172l-2.8125 1.625c-.185.102-.296875.302719-.296875.511719v3.246093c0 .209.116875.405719.296875.511719l.740234.421875c.355.175.485485.175781.646485.175781.53 0 .832031-.316953.832031-.876953v-3.207031c0-.049-.038031-.083984-.082031-.083984h-.355469c-.049 0-.083984.039984-.083984.083984v3.207031c0 .243-.256782.492203-.675782.283203l-.769531-.443359c-.025-.015-.042969-.045219-.042969-.074219v-3.246094c0-.029.013969-.063125.042969-.078125l2.8125-1.621093c.03-.015.063891-.015.087891 0l2.814453 1.621093c.029.015.042969.044125.042969.078125v3.246094c0 .034-.018969.063125-.042969.078125l-2.814453 1.626953c-.025.015-.063891.015-.087891 0l-.71875-.427734c-.019-.01-.049359-.01586-.068359-.00586-.199.117001-.238828.132313-.423828.195313-.049.015-.11561.045047.02539.123047l.933594.554687c.093.049.194875.078125.296875.078125.107 0 .210969-.029031.292969-.082031l2.8125-1.626953c.185-.102.296875-.302719.296875-.511719v-3.246093c0-.209-.116875-.404719-.296875-.511719l-2.8125-1.625c-.0875-.051-.190094-.076172-.292969-.076172zm4.386719 1.498047c-.287 0-.539063.232062-.539063.539062 0 .297.242063.541016.539063.541016s.539062-.244016.539062-.541016c0-.307-.247062-.544062-.539062-.539062zm-.00586.085937c.254 0 .458985.200125.458985.453125 0 .248-.205985.452985-.458985.458985-.249 0-.451171-.205985-.451171-.458985s.203171-.453125.451171-.453125zm-.197265.146485v.607422h.115234v-.242188h.107422c.044 0 .054453.018734.064453.052734 0 .005.018438.162407.023438.191407h.125c-.014-.029-.024297-.11211-.029297-.16211-.014-.078-.018563-.131719-.101563-.136719.044-.014999.117188-.03839.117188-.15039 0-.161-.139891-.160156-.212891-.160156zm.115234.097656h.097656c.03 0 .087891-.000969.087891.082031 0 .034-.01475.088891-.09375.087891h-.091797zm-3.544922.496094c-.803 0-1.279297.34225-1.279297.90625 0 .618.477094.783328 1.246094.861328.92.092.992188.224297.992188.404297 0 .316-.253657.447265-.847657.447265-.745 0-.90889-.184687-.96289-.554687-.005-.039-.039985-.06836-.083985-.06836h-.365234c-.044 0-.082031.034985-.082031.083985 0 .472.257281 1.037109 1.488281 1.037109.903-.001 1.414063-.350844 1.414063-.964844 0-.608-.409391-.769718-1.275391-.886718-.876-.117-.962891-.17586-.962891-.38086 0-.17.07175-.392578.71875-.392578.579 0 .794813.126625.882813.515625.01.039.037172.0625.076172.0625h.365234c.024 0 .044594-.009437.058594-.023437.015-.019.024531-.0385.019531-.0625-.058-.672-.501344-.984375-1.402344-.984375z"/></svg>